<svg width="1098" height="129" viewBox="0 0 1098 129" fill="none" xmlns="http://www.w3.org/2000/svg">
<g clip-path="url(#clip0_1_163)" filter="url(#filter0_d_1_163)">
<path fill-rule="evenodd" clip-rule="evenodd" d="M168.501 8.87171C180.397 9.31139 193.363 20.4513 192.581 33.8024C191.83 46.65 179.573 55.4076 167.009 56.7419L145.935 57.0292L145.9 8.35888L168.501 8.87164V8.87171ZM276.126 55.8077L277.236 51.6962C272.284 51.2879 274.449 51.155 272.913 52.9899C269.224 57.2962 268.104 58.3577 260.823 58.3313C255.107 58.3105 248.828 58.5386 243.19 58.1636L242.994 9.43294C251.581 8.80804 261.53 9.3079 270.165 9.26692C287.247 9.1862 283.29 15.9643 291.446 16.0792L288.689 1.22769L223.613 1.20709C224.022 6.10157 228.593 4.37184 231.094 8.3405C233.477 12.1237 232.215 45.8186 232.215 51.5625C232.215 71.4727 232.116 91.4075 232.232 111.315C213.545 111.315 205.818 102.089 196.35 92.629C191.676 87.9597 176.124 68.7667 172.846 62.3009C193.449 58.0411 212.863 35.7928 194.56 14.954C181.696 0.30876 164.216 1.4078 146.554 1.21139L126.076 2.53568C128.161 6.27745 133.165 5.14409 134.564 10.2796L134.561 109.747C132.922 115.921 127.022 113.59 126.212 118.341C129.174 119.803 151.033 119.812 154.132 118.341C153.459 113.932 148.443 115.83 146.191 111.074C144.463 107.425 145.26 69.6399 145.82 66.0867C166.612 66.2707 167.645 73.2086 177.269 84.5067C205.87 118.085 207.927 120.152 242.882 119.439C259.609 119.099 277.412 120.131 293.914 119.242L296.736 104.674C289.041 104.626 290.976 110.867 283.113 110.49L243.539 110.468L243.504 66.6999C252.075 66.6999 259.782 66.8635 268.043 67.3284C273.562 68.7057 268.219 70.2368 273.571 71.1124C275.715 67.5127 275.873 60.4687 276.126 55.8077H276.126ZM485.332 9.79472C488.6 3.24093 493.017 6.97951 493.803 1.17714L465.716 1.24808C466.139 6.41287 471.971 4.43032 473.865 10.0504C474.677 12.4613 474.257 22.9411 474.257 26.2039L474.109 110.372C472.915 117.202 466.815 114.558 465.602 119.186C469.102 121.65 487.788 120.073 493.541 120.076C493.307 114.783 488.76 117.594 485.186 111.229L484.989 51.4621C492.522 57.9038 523.981 107.1 534.862 116.22C543.151 123.168 556.932 122.967 561.091 112.794C539.924 113.006 545.738 117.99 523.466 87.8019C519.029 81.7879 497.622 54.2915 496.091 49.8722C503.041 40.9625 512.176 32.4101 519.905 23.6509C525.747 17.0312 531.508 10.676 540.193 6.54829C543.954 4.76127 547.378 5.16811 547.709 1.69064L517.486 1.19108C517.961 6.10839 519.725 2.49884 523.936 5.93487C523.801 11.3887 485.77 48.7477 485.057 49.1452L485.332 9.7948L485.332 9.79472ZM853.963 -9.59016e-05H846.588C841.131 2.77916 833.803 2.62388 827.754 13.64C809.274 47.2904 873.622 57.94 874.796 88.7522C875.548 108.462 849.953 116.249 835.315 109.984C824.734 105.455 825.958 100.358 818.91 94.6521L818.686 109.346C827.341 112.046 833.895 118.731 844.792 120.01C878.568 123.975 896.531 85.9442 872.938 62.4643C865.915 55.4758 837.37 35.3865 834.837 28.3371C831.018 17.7078 841.102 8.97088 849.805 8.09271C862.417 6.81993 868.179 15.0977 874.678 19.2969L874.566 8.27364C870.694 6.97737 857.252 1.6882 853.963 -9.59016e-05ZM778.085 -9.59016e-05H769.366C761.397 5.68583 756.852 3.94988 751.756 14.3245C734.96 48.5183 797.436 57.197 799.057 88.7493C800.01 107.308 775.463 116.394 760.077 110.191C749.881 106.081 749.786 100.241 743.313 94.4842L742.774 109.296C750.831 111.711 774.745 131.029 796.154 112.453C812.657 98.1344 811.429 76.4765 797.592 62.7922C790.126 55.4088 762.802 35.9695 759.568 29.5015C754.4 19.1659 764.615 9.72023 772.344 8.34242C786.446 5.82866 791.292 14.9422 799.122 19.1247L798.825 8.44211C791.753 4.7775 784.298 2.9615 778.085 -9.59016e-05ZM893.399 2.53568C896.057 8.64023 902.112 2.57452 902.112 16.0605L902.058 98.8992C902.064 102.657 902.887 108.518 901.036 111.633C898.489 115.92 894.153 114.072 893.519 118.341C901.124 120.175 948.755 119.035 962.982 118.853L966.243 104.131C959.51 104.366 959.441 110.944 947.869 110.944L912.827 110.891L912.813 65.8581C953.262 64.8608 933.675 70.0971 943.68 71.0052L946.373 51.8692C939.287 52.0247 942.747 57.6709 933.409 58.1652C927.253 58.4911 919.416 58.2263 913.148 58.1063C912.323 50.3173 912.572 18.6713 912.978 9.44058L942.754 9.4176C955.922 9.4176 953.38 15.8986 960.95 16.2608L958.367 1.67982C951.629 0.805509 920.743 1.40262 909.508 1.29284C904.939 1.248 896.085 0.037038 893.399 2.53568H893.399ZM70.5175 -9.59016e-05H59.7973C55.9892 1.72963 49.7597 2.07999 45.2936 3.53274C-6.38217 20.3421 -11.3591 93.1689 40.605 115.224C64.908 125.539 76.1434 118.48 97.9638 113.022C101.036 115.053 103.662 117.7 109.028 118.478C105.071 104.88 105.949 99.4683 105.949 84.5291C105.949 80.0865 105.417 69.9998 106.126 66.208C107.508 58.8223 114.488 62.9156 114.021 56.8067L87.0994 57.4798C87.978 63.6646 95.5745 57.4393 95.52 70.9622C95.4917 78.0204 95.4641 85.0774 95.4798 92.1372C95.5011 101.581 96.9215 104.101 89.2102 108C84.3403 110.462 78.5779 112.061 72.4261 112.644C-3.80395 119.871 -3.31367 3.61938 69.0154 7.63065C88.5896 8.71636 90.725 14.3984 99.589 19.6167L99.4073 6.3097L70.5174 5.23373e-05L70.5175 -9.59016e-05ZM380.237 56.7413C380.167 63.3547 388.579 57.4021 388.613 70.0945C388.633 77.4345 388.539 84.7919 388.566 92.1386C388.606 102.899 389.762 102.958 381.727 107.265C353.362 122.47 320.761 107.353 311.295 80.9352C291.013 24.335 354.483 -14.3043 392.546 19.8121L392.473 6.30221C367.061 0.203881 346.982 -3.82614 325.116 9.6596C285.991 33.79 288.311 90.6533 326.754 112.108C351.22 125.763 367.096 120.688 392.063 112.785C394.794 114.899 397.067 117.11 401.774 118.494C397.897 106.041 398.972 98.0898 398.972 84.529C398.972 79.6704 398.461 71.2479 399.012 66.8134C399.913 59.5568 405.805 62.5328 407.376 57.4796C402.989 55.0986 386.498 56.7412 380.237 56.7412L380.237 56.7413ZM985.788 -9.59016e-05H972.652C974.866 5.90678 987.71 15.0031 989.227 19.7883L989.417 109.745C987.966 117.026 981.504 112.756 981.052 119.257C987.14 119.237 1003.76 120.767 1007.62 118.341C1005.49 111.707 998.764 119.254 998.896 102.287C999.035 84.4053 997.786 41.9922 999.159 29.7618C1010.33 40.607 1042.79 80.9307 1057.44 96.7541L1076.58 119.199L1085.16 119.276C1086.03 107.158 1084.62 12.9444 1085.69 9.7816C1087.27 5.1329 1092.02 6.53228 1094 2.53553C1091.7 1.12474 1070.29 0.0692058 1067.3 2.53553C1070.24 9.86113 1076.01 -1.08787 1075.97 21.1319C1075.93 39.2814 1077.12 89.1524 1075.68 100.447C1068.29 93.6425 1040.34 59.4762 1031.43 49.842L992.671 5.43672C989.676 1.84496 989.065 2.55903 985.788 -0.000244141V-9.59016e-05ZM678.78 20.3845L693.764 57.7013L662.688 57.553L678.78 20.3845ZM588.981 8.45909C591.528 4.48154 595.932 5.86053 596.396 1.21331L568.609 1.69064C568.791 6.30221 575.19 4.10953 576.87 10.3315L576.821 110.491C575.581 114.798 570.075 114.316 568.406 118.341C571.046 120.17 573.637 119.388 578.75 119.359C591.36 119.286 646.859 121.003 650.264 118.341C648.279 113.456 639.045 116.527 642.105 107.704C644.002 102.235 659.17 64.7172 661.441 64.197L695.54 64.2018C698.244 64.8318 713.786 104.106 715.053 108.344C717.642 116.996 708.877 113.686 706.587 118.341C708.952 120.049 736.393 120.296 738.775 118.341C737.332 114.99 731.277 117.209 727.083 108.181L682.207 1.17722H677.845C673.719 7.40014 665.738 28.0008 662.238 36.2911C657.275 48.0473 652.237 59.4168 647.229 71.2885C628.382 115.967 633.483 112.573 611.999 112.569C605.948 112.567 592.824 113.297 588.49 111.318C586.504 104.387 587.796 62.8286 587.796 52.408C587.796 46.6315 586.562 12.2367 588.981 8.45924L588.981 8.45909Z" fill="white"/>
</g>
<defs>
<filter id="filter0_d_1_163" x="-0.000610352" y="0" width="1098" height="129" filterUnits="userSpaceOnUse" color-interpolation-filters="sRGB">
<feFlood flood-opacity="0" result="BackgroundImageFix"/>
<feColorMatrix in="SourceAlpha" type="matrix" values="0 0 0 0 0 0 0 0 0 0 0 0 0 0 0 0 0 0 127 0" result="hardAlpha"/>
<feOffset dy="4"/>
<feGaussianBlur stdDeviation="2"/>
<feComposite in2="hardAlpha" operator="out"/>
<feColorMatrix type="matrix" values="0 0 0 0 0 0 0 0 0 0 0 0 0 0 0 0 0 0 0.5 0"/>
<feBlend mode="normal" in2="BackgroundImageFix" result="effect1_dropShadow_1_163"/>
<feBlend mode="normal" in="SourceGraphic" in2="effect1_dropShadow_1_163" result="shape"/>
</filter>
<clipPath id="clip0_1_163">
<rect width="1090" height="121" fill="white" transform="translate(3.99939)"/>
</clipPath>
</defs>
</svg>
